<svg width="1024" height="1024" viewBox="0 0 1024 1024" fill="none" xmlns="http://www.w3.org/2000/svg">
  <!-- Background circle with rounded corners -->
  <rect x="64" y="64" width="896" height="896" rx="180" fill="#6366F1" stroke="#4F46E5" stroke-width="8"/>
  
  <!-- List items with rounded corners -->
  <!-- Item 1 -->
  <rect x="200" y="200" width="624" height="80" rx="20" fill="white" opacity="0.95"/>
  <circle cx="240" cy="240" r="12" fill="#6366F1"/>
  <rect x="280" y="230" width="320" height="20" rx="10" fill="#6B7280"/>
  
  <!-- Item 2 -->
  <rect x="200" y="300" width="624" height="80" rx="20" fill="white" opacity="0.9"/>
  <circle cx="240" cy="340" r="12" fill="#6366F1"/>
  <rect x="280" y="330" width="280" height="20" rx="10" fill="#6B7280"/>
  
  <!-- Item 3 -->
  <rect x="200" y="400" width="624" height="80" rx="20" fill="white" opacity="0.85"/>
  <circle cx="240" cy="440" r="12" fill="#6366F1"/>
  <rect x="280" y="430" width="240" height="20" rx="10" fill="#6B7280"/>
  
  <!-- Item 4 -->
  <rect x="200" y="500" width="624" height="80" rx="20" fill="white" opacity="0.8"/>
  <circle cx="240" cy="540" r="12" fill="#6366F1"/>
  <rect x="280" y="530" width="200" height="20" rx="10" fill="#6B7280"/>
  
  <!-- Item 5 -->
  <rect x="200" y="600" width="624" height="80" rx="20" fill="white" opacity="0.75"/>
  <circle cx="240" cy="640" r="12" fill="#6366F1"/>
  <rect x="280" y="630" width="180" height="20" rx="10" fill="#6B7280"/>
  
  <!-- Decorative elements -->
  <circle cx="800" cy="240" r="16" fill="#10B981" opacity="0.8"/>
  <circle cx="800" cy="340" r="16" fill="#F59E0B" opacity="0.8"/>
  <circle cx="800" cy="440" r="16" fill="#EF4444" opacity="0.8"/>
  <circle cx="800" cy="540" r="16" fill="#8B5CF6" opacity="0.8"/>
  <circle cx="800" cy="640" r="16" fill="#06B6D4" opacity="0.8"/>
  
  <!-- Subtle shadow overlay -->
  <rect x="200" y="200" width="624" height="480" rx="20" fill="url(#shadow)" opacity="0.1"/>
  
  <!-- Gradient definitions -->
  <defs>
    <linearGradient id="shadow" x1="0%" y1="0%" x2="0%" y2="100%">
      <stop offset="0%" stop-color="#000000" stop-opacity="0"/>
      <stop offset="100%" stop-color="#000000" stop-opacity="0.3"/>
    </linearGradient>
  </defs>
</svg>
